<mxfile host="app.diagrams.net" agent="Mozilla/5.0 (Windows NT 10.0; Win64; x64) AppleWebKit/537.36 (KHTML, like Gecko) Chrome/130.0.0.0 Safari/537.36" version="24.8.6">
  <diagram id="RuoxqOXRSrMZYSvnUipe" name="thread_pool">
    <mxGraphModel dx="2084" dy="1140" grid="1" gridSize="10" guides="1" tooltips="1" connect="1" arrows="1" fold="1" page="1" pageScale="1" pageWidth="850" pageHeight="1100" math="0" shadow="0">
      <root>
        <mxCell id="0" />
        <mxCell id="1" parent="0" />
        <mxCell id="2" value="UnboundedTaskQueue" style="swimlane;fontStyle=1;align=center;verticalAlign=top;childLayout=stackLayout;horizontal=1;startSize=26;horizontalStack=0;resizeParent=1;resizeParentMax=0;resizeLast=0;collapsible=1;marginBottom=0;" parent="1" vertex="1">
          <mxGeometry x="160" y="292" width="240" height="138" as="geometry" />
        </mxCell>
        <mxCell id="BawedRRlxbNmZ5AMLbOk-7" value="- mut_: std::mutex" style="text;strokeColor=none;fillColor=none;align=left;verticalAlign=top;spacingLeft=4;spacingRight=4;overflow=hidden;rotatable=0;points=[[0,0.5],[1,0.5]];portConstraint=eastwest;" vertex="1" parent="2">
          <mxGeometry y="26" width="240" height="26" as="geometry" />
        </mxCell>
        <mxCell id="4" value="" style="line;strokeWidth=1;fillColor=none;align=left;verticalAlign=middle;spacingTop=-1;spacingLeft=3;spacingRight=3;rotatable=0;labelPosition=right;points=[];portConstraint=eastwest;strokeColor=inherit;" parent="2" vertex="1">
          <mxGeometry y="52" width="240" height="8" as="geometry" />
        </mxCell>
        <mxCell id="BawedRRlxbNmZ5AMLbOk-5" value="+ pushTask(tsk: task_t&amp;&amp;): void" style="text;strokeColor=none;fillColor=none;align=left;verticalAlign=top;spacingLeft=4;spacingRight=4;overflow=hidden;rotatable=0;points=[[0,0.5],[1,0.5]];portConstraint=eastwest;" vertex="1" parent="2">
          <mxGeometry y="60" width="240" height="26" as="geometry" />
        </mxCell>
        <mxCell id="3" value="+ popTask(tsk: task_t&amp;):void" style="text;strokeColor=none;fillColor=none;align=left;verticalAlign=top;spacingLeft=4;spacingRight=4;overflow=hidden;rotatable=0;points=[[0,0.5],[1,0.5]];portConstraint=eastwest;" parent="2" vertex="1">
          <mxGeometry y="86" width="240" height="26" as="geometry" />
        </mxCell>
        <mxCell id="BawedRRlxbNmZ5AMLbOk-6" value="+ setDone(): void" style="text;strokeColor=none;fillColor=none;align=left;verticalAlign=top;spacingLeft=4;spacingRight=4;overflow=hidden;rotatable=0;points=[[0,0.5],[1,0.5]];portConstraint=eastwest;" vertex="1" parent="2">
          <mxGeometry y="112" width="240" height="26" as="geometry" />
        </mxCell>
        <mxCell id="BawedRRlxbNmZ5AMLbOk-8" value="lock-based queue" style="shape=note;whiteSpace=wrap;html=1;backgroundOutline=1;darkOpacity=0.05;" vertex="1" parent="1">
          <mxGeometry y="160" width="160" height="60" as="geometry" />
        </mxCell>
        <mxCell id="BawedRRlxbNmZ5AMLbOk-9" value="" style="endArrow=classic;html=1;rounded=0;exitX=0.987;exitY=0.945;exitDx=0;exitDy=0;exitPerimeter=0;entryX=0;entryY=0;entryDx=0;entryDy=0;" edge="1" parent="1" source="BawedRRlxbNmZ5AMLbOk-8" target="2">
          <mxGeometry width="50" height="50" relative="1" as="geometry">
            <mxPoint x="80" y="460" as="sourcePoint" />
            <mxPoint x="130" y="410" as="targetPoint" />
          </mxGeometry>
        </mxCell>
        <mxCell id="BawedRRlxbNmZ5AMLbOk-17" value="" style="endArrow=open;endFill=1;endSize=12;html=1;rounded=0;exitX=0;exitY=0.25;exitDx=0;exitDy=0;entryX=1;entryY=0.617;entryDx=0;entryDy=0;entryPerimeter=0;" edge="1" parent="1" source="BawedRRlxbNmZ5AMLbOk-56" target="BawedRRlxbNmZ5AMLbOk-62">
          <mxGeometry width="160" relative="1" as="geometry">
            <mxPoint x="250" y="570" as="sourcePoint" />
            <mxPoint x="120" y="605" as="targetPoint" />
          </mxGeometry>
        </mxCell>
        <mxCell id="BawedRRlxbNmZ5AMLbOk-55" value="" style="group" vertex="1" connectable="0" parent="1">
          <mxGeometry x="180" y="570" width="320" height="195" as="geometry" />
        </mxCell>
        <mxCell id="BawedRRlxbNmZ5AMLbOk-56" value="&lt;span style=&quot;text-wrap-mode: nowrap;&quot;&gt;ThreadPool_impl&lt;/span&gt;" style="swimlane;fontStyle=1;align=center;verticalAlign=top;childLayout=stackLayout;horizontal=1;startSize=26;horizontalStack=0;resizeParent=1;resizeParentMax=0;resizeLast=0;collapsible=1;marginBottom=0;whiteSpace=wrap;html=1;" vertex="1" parent="BawedRRlxbNmZ5AMLbOk-55">
          <mxGeometry y="15" width="310" height="186" as="geometry" />
        </mxCell>
        <mxCell id="BawedRRlxbNmZ5AMLbOk-44" value="&lt;span style=&quot;text-wrap-mode: nowrap;&quot;&gt;#future_: std::unordered_mak&amp;lt;taskID_t, std::future&amp;lt;T&amp;gt;&amp;gt;&lt;/span&gt;" style="text;strokeColor=none;fillColor=none;align=left;verticalAlign=top;spacingLeft=4;spacingRight=4;overflow=hidden;rotatable=0;points=[[0,0.5],[1,0.5]];portConstraint=eastwest;whiteSpace=wrap;html=1;" vertex="1" parent="BawedRRlxbNmZ5AMLbOk-56">
          <mxGeometry y="26" width="310" height="26" as="geometry" />
        </mxCell>
        <mxCell id="BawedRRlxbNmZ5AMLbOk-100" value="&lt;span style=&quot;text-wrap-mode: nowrap;&quot;&gt;-consumers_: std::vector&amp;lt;std::thread&amp;gt;&lt;/span&gt;" style="text;strokeColor=none;fillColor=none;align=left;verticalAlign=top;spacingLeft=4;spacingRight=4;overflow=hidden;rotatable=0;points=[[0,0.5],[1,0.5]];portConstraint=eastwest;whiteSpace=wrap;html=1;" vertex="1" parent="BawedRRlxbNmZ5AMLbOk-56">
          <mxGeometry y="52" width="310" height="26" as="geometry" />
        </mxCell>
        <mxCell id="BawedRRlxbNmZ5AMLbOk-101" value="-queue_: UnboundedTaskQueue&amp;nbsp;" style="text;strokeColor=none;fillColor=none;align=left;verticalAlign=top;spacingLeft=4;spacingRight=4;overflow=hidden;rotatable=0;points=[[0,0.5],[1,0.5]];portConstraint=eastwest;whiteSpace=wrap;html=1;" vertex="1" parent="BawedRRlxbNmZ5AMLbOk-56">
          <mxGeometry y="78" width="310" height="26" as="geometry" />
        </mxCell>
        <mxCell id="BawedRRlxbNmZ5AMLbOk-58" value="" style="line;strokeWidth=1;fillColor=none;align=left;verticalAlign=middle;spacingTop=-1;spacingLeft=3;spacingRight=3;rotatable=0;labelPosition=right;points=[];portConstraint=eastwest;strokeColor=inherit;" vertex="1" parent="BawedRRlxbNmZ5AMLbOk-56">
          <mxGeometry y="104" width="310" height="8" as="geometry" />
        </mxCell>
        <mxCell id="BawedRRlxbNmZ5AMLbOk-102" value="+&amp;nbsp;ThreadPool_impl(threadCount: size_t)&amp;nbsp;" style="text;strokeColor=none;fillColor=none;align=left;verticalAlign=top;spacingLeft=4;spacingRight=4;overflow=hidden;rotatable=0;points=[[0,0.5],[1,0.5]];portConstraint=eastwest;whiteSpace=wrap;html=1;" vertex="1" parent="BawedRRlxbNmZ5AMLbOk-56">
          <mxGeometry y="112" width="310" height="26" as="geometry" />
        </mxCell>
        <mxCell id="BawedRRlxbNmZ5AMLbOk-59" value="&lt;div&gt;template &amp;lt;typename F, typename... Args&amp;gt;&lt;/div&gt;&lt;div&gt;+pushTask(f: F, args:&amp;nbsp;&lt;span style=&quot;background-color: initial;&quot;&gt;Args&amp;amp;&amp;amp;...&lt;/span&gt;&lt;span style=&quot;background-color: initial;&quot;&gt;):&amp;nbsp;&lt;/span&gt;&lt;span style=&quot;background-color: initial;&quot;&gt;taskID_t&lt;/span&gt;&lt;span style=&quot;background-color: initial;&quot;&gt;&amp;nbsp;&lt;/span&gt;&lt;/div&gt;" style="text;strokeColor=none;fillColor=none;align=left;verticalAlign=top;spacingLeft=4;spacingRight=4;overflow=hidden;rotatable=0;points=[[0,0.5],[1,0.5]];portConstraint=eastwest;whiteSpace=wrap;html=1;" vertex="1" parent="BawedRRlxbNmZ5AMLbOk-56">
          <mxGeometry y="138" width="310" height="48" as="geometry" />
        </mxCell>
        <mxCell id="BawedRRlxbNmZ5AMLbOk-60" value="typename T" style="rounded=0;whiteSpace=wrap;html=1;dashed=1;" vertex="1" parent="BawedRRlxbNmZ5AMLbOk-55">
          <mxGeometry x="223.030303030303" width="96.96969696969695" height="20" as="geometry" />
        </mxCell>
        <mxCell id="BawedRRlxbNmZ5AMLbOk-62" value="&lt;font style=&quot;font-size: 13px;&quot;&gt;taksID_t = size_t&lt;/font&gt;&lt;div style=&quot;font-size: 13px;&quot;&gt;&amp;nbsp; &amp;nbsp; taskID_t initID();&lt;/div&gt;&lt;div style=&quot;font-size: 13px;&quot;&gt;taskID_t getNextId(const taskID_t&amp;amp; ID)&lt;/div&gt;" style="rounded=0;whiteSpace=wrap;html=1;" vertex="1" parent="1">
          <mxGeometry x="-270" y="680" width="340" height="60" as="geometry" />
        </mxCell>
        <mxCell id="BawedRRlxbNmZ5AMLbOk-63" value="&lt;div&gt;&lt;span style=&quot;font-size: 13px; background-color: initial;&quot;&gt;task_t = std::move_only_function&amp;lt;int()&amp;gt;&lt;/span&gt;&lt;/div&gt;&lt;div style=&quot;text-align: left;&quot;&gt;&lt;span style=&quot;font-size: 13px;&quot;&gt;&lt;br&gt;&lt;/span&gt;&lt;div style=&quot;font-size: 13px;&quot;&gt;&lt;span style=&quot;background-color: initial;&quot;&gt;template &amp;lt;typename F, typename... Args&amp;gt;&lt;/span&gt;&lt;/div&gt;&lt;div style=&quot;font-size: 13px;&quot;&gt;std::tuple&amp;lt;task_t, std::future&amp;lt;return_type(F)&amp;gt;&amp;gt; createTask(F f, Args&amp;amp;&amp;amp;... args)&lt;/div&gt;&lt;/div&gt;" style="rounded=0;whiteSpace=wrap;html=1;" vertex="1" parent="1">
          <mxGeometry x="450" y="410" width="460" height="120" as="geometry" />
        </mxCell>
        <mxCell id="BawedRRlxbNmZ5AMLbOk-65" value="" style="endArrow=open;endFill=1;endSize=12;html=1;rounded=0;exitX=0.5;exitY=0;exitDx=0;exitDy=0;entryX=0;entryY=0.5;entryDx=0;entryDy=0;" edge="1" parent="1" source="BawedRRlxbNmZ5AMLbOk-56" target="BawedRRlxbNmZ5AMLbOk-63">
          <mxGeometry width="160" relative="1" as="geometry">
            <mxPoint x="270" y="667" as="sourcePoint" />
            <mxPoint x="130" y="607" as="targetPoint" />
          </mxGeometry>
        </mxCell>
        <mxCell id="BawedRRlxbNmZ5AMLbOk-66" value="" style="endArrow=open;endFill=1;endSize=12;html=1;rounded=0;exitX=1;exitY=0.5;exitDx=0;exitDy=0;entryX=0;entryY=0.25;entryDx=0;entryDy=0;" edge="1" parent="1" source="BawedRRlxbNmZ5AMLbOk-7" target="BawedRRlxbNmZ5AMLbOk-63">
          <mxGeometry width="160" relative="1" as="geometry">
            <mxPoint x="415" y="645" as="sourcePoint" />
            <mxPoint x="435" y="480" as="targetPoint" />
          </mxGeometry>
        </mxCell>
        <mxCell id="BawedRRlxbNmZ5AMLbOk-67" value="" style="endArrow=diamondThin;endFill=1;endSize=24;html=1;rounded=0;exitX=0.488;exitY=1.115;exitDx=0;exitDy=0;exitPerimeter=0;entryX=0.317;entryY=-0.007;entryDx=0;entryDy=0;entryPerimeter=0;" edge="1" parent="1" source="BawedRRlxbNmZ5AMLbOk-6" target="BawedRRlxbNmZ5AMLbOk-56">
          <mxGeometry width="160" relative="1" as="geometry">
            <mxPoint x="260" y="700" as="sourcePoint" />
            <mxPoint x="260" y="640" as="targetPoint" />
          </mxGeometry>
        </mxCell>
        <mxCell id="BawedRRlxbNmZ5AMLbOk-68" value="0..1" style="edgeLabel;html=1;align=center;verticalAlign=middle;resizable=0;points=[];" vertex="1" connectable="0" parent="BawedRRlxbNmZ5AMLbOk-67">
          <mxGeometry x="0.4783" y="3" relative="1" as="geometry">
            <mxPoint x="19" y="13" as="offset" />
          </mxGeometry>
        </mxCell>
        <mxCell id="BawedRRlxbNmZ5AMLbOk-69" value="1" style="edgeLabel;html=1;align=center;verticalAlign=middle;resizable=0;points=[];" vertex="1" connectable="0" parent="BawedRRlxbNmZ5AMLbOk-67">
          <mxGeometry x="-0.797" y="1" relative="1" as="geometry">
            <mxPoint x="14" as="offset" />
          </mxGeometry>
        </mxCell>
        <mxCell id="BawedRRlxbNmZ5AMLbOk-70" value="" style="group" vertex="1" connectable="0" parent="1">
          <mxGeometry x="360" y="830" width="297" height="101" as="geometry" />
        </mxCell>
        <mxCell id="BawedRRlxbNmZ5AMLbOk-71" value="ThreadPool" style="swimlane;fontStyle=1;align=center;verticalAlign=top;childLayout=stackLayout;horizontal=1;startSize=26;horizontalStack=0;resizeParent=1;resizeParentMax=0;resizeLast=0;collapsible=1;marginBottom=0;whiteSpace=wrap;html=1;" vertex="1" parent="BawedRRlxbNmZ5AMLbOk-70">
          <mxGeometry y="15" width="290" height="112" as="geometry" />
        </mxCell>
        <mxCell id="BawedRRlxbNmZ5AMLbOk-73" value="" style="line;strokeWidth=1;fillColor=none;align=left;verticalAlign=middle;spacingTop=-1;spacingLeft=3;spacingRight=3;rotatable=0;labelPosition=right;points=[];portConstraint=eastwest;strokeColor=inherit;" vertex="1" parent="BawedRRlxbNmZ5AMLbOk-71">
          <mxGeometry y="26" width="290" height="8" as="geometry" />
        </mxCell>
        <mxCell id="BawedRRlxbNmZ5AMLbOk-85" value="+&amp;nbsp;ThreadPool(threadCount: size_t)&amp;nbsp;" style="text;strokeColor=none;fillColor=none;align=left;verticalAlign=top;spacingLeft=4;spacingRight=4;overflow=hidden;rotatable=0;points=[[0,0.5],[1,0.5]];portConstraint=eastwest;whiteSpace=wrap;html=1;" vertex="1" parent="BawedRRlxbNmZ5AMLbOk-71">
          <mxGeometry y="34" width="290" height="26" as="geometry" />
        </mxCell>
        <mxCell id="BawedRRlxbNmZ5AMLbOk-87" value="+&amp;nbsp;ThreadPool()&amp;nbsp;" style="text;strokeColor=none;fillColor=none;align=left;verticalAlign=top;spacingLeft=4;spacingRight=4;overflow=hidden;rotatable=0;points=[[0,0.5],[1,0.5]];portConstraint=eastwest;whiteSpace=wrap;html=1;" vertex="1" parent="BawedRRlxbNmZ5AMLbOk-71">
          <mxGeometry y="60" width="290" height="26" as="geometry" />
        </mxCell>
        <mxCell id="BawedRRlxbNmZ5AMLbOk-86" value="+ watiNPopResult(ID: taskID_t, res: T&amp;amp;) : void" style="text;strokeColor=none;fillColor=none;align=left;verticalAlign=top;spacingLeft=4;spacingRight=4;overflow=hidden;rotatable=0;points=[[0,0.5],[1,0.5]];portConstraint=eastwest;whiteSpace=wrap;html=1;" vertex="1" parent="BawedRRlxbNmZ5AMLbOk-71">
          <mxGeometry y="86" width="290" height="26" as="geometry" />
        </mxCell>
        <mxCell id="BawedRRlxbNmZ5AMLbOk-75" value="typename T" style="rounded=0;whiteSpace=wrap;html=1;dashed=1;" vertex="1" parent="BawedRRlxbNmZ5AMLbOk-70">
          <mxGeometry x="207" width="90" height="20" as="geometry" />
        </mxCell>
        <mxCell id="BawedRRlxbNmZ5AMLbOk-76" value="" style="group" vertex="1" connectable="0" parent="1">
          <mxGeometry x="60" y="830" width="297" height="101" as="geometry" />
        </mxCell>
        <mxCell id="BawedRRlxbNmZ5AMLbOk-77" value="ThreadPool" style="swimlane;fontStyle=1;align=center;verticalAlign=top;childLayout=stackLayout;horizontal=1;startSize=26;horizontalStack=0;resizeParent=1;resizeParentMax=0;resizeLast=0;collapsible=1;marginBottom=0;whiteSpace=wrap;html=1;" vertex="1" parent="BawedRRlxbNmZ5AMLbOk-76">
          <mxGeometry y="15" width="290" height="112" as="geometry" />
        </mxCell>
        <mxCell id="BawedRRlxbNmZ5AMLbOk-79" value="" style="line;strokeWidth=1;fillColor=none;align=left;verticalAlign=middle;spacingTop=-1;spacingLeft=3;spacingRight=3;rotatable=0;labelPosition=right;points=[];portConstraint=eastwest;strokeColor=inherit;" vertex="1" parent="BawedRRlxbNmZ5AMLbOk-77">
          <mxGeometry y="26" width="290" height="8" as="geometry" />
        </mxCell>
        <mxCell id="BawedRRlxbNmZ5AMLbOk-95" value="+&amp;nbsp;ThreadPool(threadCount: size_t)&amp;nbsp;" style="text;strokeColor=none;fillColor=none;align=left;verticalAlign=top;spacingLeft=4;spacingRight=4;overflow=hidden;rotatable=0;points=[[0,0.5],[1,0.5]];portConstraint=eastwest;whiteSpace=wrap;html=1;" vertex="1" parent="BawedRRlxbNmZ5AMLbOk-77">
          <mxGeometry y="34" width="290" height="26" as="geometry" />
        </mxCell>
        <mxCell id="BawedRRlxbNmZ5AMLbOk-96" value="+&amp;nbsp;ThreadPool()&amp;nbsp;" style="text;strokeColor=none;fillColor=none;align=left;verticalAlign=top;spacingLeft=4;spacingRight=4;overflow=hidden;rotatable=0;points=[[0,0.5],[1,0.5]];portConstraint=eastwest;whiteSpace=wrap;html=1;" vertex="1" parent="BawedRRlxbNmZ5AMLbOk-77">
          <mxGeometry y="60" width="290" height="26" as="geometry" />
        </mxCell>
        <mxCell id="BawedRRlxbNmZ5AMLbOk-97" value="+ waitTask(ID: taskID_t): void&amp;nbsp;" style="text;strokeColor=none;fillColor=none;align=left;verticalAlign=top;spacingLeft=4;spacingRight=4;overflow=hidden;rotatable=0;points=[[0,0.5],[1,0.5]];portConstraint=eastwest;whiteSpace=wrap;html=1;" vertex="1" parent="BawedRRlxbNmZ5AMLbOk-77">
          <mxGeometry y="86" width="290" height="26" as="geometry" />
        </mxCell>
        <mxCell id="BawedRRlxbNmZ5AMLbOk-81" value="&amp;lt;void&amp;gt;" style="rounded=0;whiteSpace=wrap;html=1;dashed=1;" vertex="1" parent="BawedRRlxbNmZ5AMLbOk-76">
          <mxGeometry x="207" width="90" height="20" as="geometry" />
        </mxCell>
        <mxCell id="BawedRRlxbNmZ5AMLbOk-83" value="Extends" style="endArrow=block;endSize=16;endFill=0;html=1;rounded=0;entryX=0.855;entryY=1;entryDx=0;entryDy=0;entryPerimeter=0;" edge="1" parent="1" target="BawedRRlxbNmZ5AMLbOk-59">
          <mxGeometry width="160" relative="1" as="geometry">
            <mxPoint x="447" y="840" as="sourcePoint" />
            <mxPoint x="430" y="620" as="targetPoint" />
          </mxGeometry>
        </mxCell>
        <mxCell id="BawedRRlxbNmZ5AMLbOk-84" value="Extends" style="endArrow=block;endSize=16;endFill=0;html=1;rounded=0;entryX=0.224;entryY=0.885;entryDx=0;entryDy=0;entryPerimeter=0;" edge="1" parent="1" target="BawedRRlxbNmZ5AMLbOk-59">
          <mxGeometry width="160" relative="1" as="geometry">
            <mxPoint x="250" y="840" as="sourcePoint" />
            <mxPoint x="361" y="741" as="targetPoint" />
          </mxGeometry>
        </mxCell>
        <mxCell id="BawedRRlxbNmZ5AMLbOk-98" value="" style="endArrow=open;endFill=1;endSize=12;html=1;rounded=0;exitX=0;exitY=0;exitDx=0;exitDy=0;entryX=0.5;entryY=1;entryDx=0;entryDy=0;" edge="1" parent="1" source="BawedRRlxbNmZ5AMLbOk-77" target="BawedRRlxbNmZ5AMLbOk-62">
          <mxGeometry width="160" relative="1" as="geometry">
            <mxPoint x="160" y="677" as="sourcePoint" />
            <mxPoint x="90" y="607" as="targetPoint" />
          </mxGeometry>
        </mxCell>
        <mxCell id="BawedRRlxbNmZ5AMLbOk-99" value="" style="endArrow=open;endFill=1;endSize=12;html=1;rounded=0;exitX=0;exitY=0;exitDx=0;exitDy=0;entryX=0.75;entryY=1;entryDx=0;entryDy=0;" edge="1" parent="1" source="BawedRRlxbNmZ5AMLbOk-71" target="BawedRRlxbNmZ5AMLbOk-62">
          <mxGeometry width="160" relative="1" as="geometry">
            <mxPoint x="170" y="687" as="sourcePoint" />
            <mxPoint x="100" y="617" as="targetPoint" />
          </mxGeometry>
        </mxCell>
      </root>
    </mxGraphModel>
  </diagram>
</mxfile>
